<?xml version="1.0" encoding="UTF-8" standalone="no"?>
<svg
   viewBox="0 0 483 527.48"
   version="1.1"
   id="svg37456"
   sodipodi:docname="House Baratheon of King's Landing.svg"
   inkscape:version="1.2.1 (9c6d41e410, 2022-07-14)"
   xmlns:inkscape="http://www.inkscape.org/namespaces/inkscape"
   xmlns:sodipodi="http://sodipodi.sourceforge.net/DTD/sodipodi-0.dtd"
   xmlns="http://www.w3.org/2000/svg"
   xmlns:svg="http://www.w3.org/2000/svg">
  <sodipodi:namedview
     id="namedview37458"
     pagecolor="#ffffff"
     bordercolor="#000000"
     borderopacity="0.25"
     inkscape:showpageshadow="2"
     inkscape:pageopacity="0.0"
     inkscape:pagecheckerboard="0"
     inkscape:deskcolor="#d1d1d1"
     showgrid="false"
     inkscape:zoom="1.12203"
     inkscape:cx="168.44469"
     inkscape:cy="236.17906"
     inkscape:window-width="1920"
     inkscape:window-height="1017"
     inkscape:window-x="-8"
     inkscape:window-y="-8"
     inkscape:window-maximized="1"
     inkscape:current-layer="svg37456" />
  <defs
     id="defs37165">
    <style
       id="style37163">.cls-1{fill:#6c2c23;}.cls-2,.cls-6{fill:#ab9367;}.cls-3{fill:#190b0a;}.cls-12,.cls-13,.cls-14,.cls-4,.cls-5,.cls-7{fill:none;}.cls-4,.cls-5{stroke:#ab9367;}.cls-12,.cls-4,.cls-5,.cls-8{stroke-linecap:round;stroke-linejoin:round;}.cls-4{stroke-width:2px;}.cls-14,.cls-6,.cls-7{stroke:#000;}.cls-10,.cls-13,.cls-6,.cls-7{stroke-miterlimit:10;}.cls-8,.cls-9{fill:#e0bea4;}.cls-10,.cls-12,.cls-13,.cls-8{stroke:#6c2c23;}.cls-10,.cls-11{fill:#916c3d;}.cls-14{stroke-width:3px;}</style>
    <radialGradient
       id="rg"
       gradientUnits="userSpaceOnUse"
       cx="220"
       cy="220"
       r="405"
       gradientTransform="matrix(0.80510068,0,0,0.80302287,1.3597962,-2.066024)">
      <stop
         style="stop-color:#ffffff;stop-opacity:.3"
         offset="0"
         id="stop753" />
      <stop
         style="stop-color:#ffffff;stop-opacity:.2"
         offset=".2"
         id="stop755" />
      <stop
         style="stop-color:#666666;stop-opacity:.1"
         offset=".6"
         id="stop757" />
      <stop
         style="stop-color:#000000;stop-opacity:.13"
         offset="1"
         id="stop759" />
    </radialGradient>
  </defs>
  <title
     id="title37167">House Baratheon of King&amp;apos;s Landing</title>
  <g
     id="Layer_2"
     data-name="Layer 2">
    <path
       class="cls-1"
       d="M927,122.76V328.6a314.37,314.37,0,0,1-2.28,38c-.11.93-.24,1.86-.36,2.79s-.24,1.86-.39,2.79q-.7,5.05-1.61,10c-.07.44-.15.87-.23,1.31-.15.8-.29,1.6-.45,2.39s-.34,1.8-.51,2.69l-.45,2.22-.24,1.16c-.15.71-.3,1.44-.47,2.15q-.8,3.55-1.61,7l-.58,2.32-.52,2q-1.52,5.88-3.27,11.61c-.29,1-.59,1.94-.9,2.92l-.6,1.88c-.19.63-.39,1.25-.6,1.86l-1.1,3.26c-.37,1.09-.68,2-1,3-.47,1.28-.92,2.55-1.39,3.81-.36,1-.73,2-1.11,3l-.19.49c-.43,1.14-.87,2.25-1.32,3.37s-.87,2.16-1.32,3.19a3.35,3.35,0,0,1-.18.42c-.4,1-.8,2-1.25,3s-.75,1.75-1.13,2.62l-.66,1.49c-.47,1.07-.95,2.12-1.44,3.15s-.9,2-1.36,2.93l-1,2.12c-.3.63-.6,1.25-.91,1.88-.63,1.32-1.31,2.64-2,4q-2.53,5-5.19,9.77l-2,3.57-.11.21q-2.13,3.71-4.33,7.33c-.71,1.2-1.46,2.39-2.18,3.54-.1.16-.19.31-.3.46-.55.89-1.12,1.78-1.69,2.66l-.66,1c-.65,1-1.31,2-2,3l-.13.18c-.66,1-1.32,2-2,3l-.45.67q-2.26,3.28-4.54,6.46l-.31.42c-.8,1.07-1.54,2.14-2.31,3.19s-1.66,2.23-2.5,3.32q-2.29,3-4.61,6l-.8,1c-.73.93-1.48,1.85-2.22,2.76L854,526.61l-.57.69L851,530.1q-2.83,3.32-5.72,6.53c-.75.85-1.52,1.69-2.29,2.51l-2.22,2.39q-3,3.19-5.93,6.24-2.76,2.83-5.53,5.59c-.91.91-1.84,1.82-2.76,2.71s-1.85,1.78-2.78,2.67l-2.28,2.11c-.68.65-1.36,1.28-2.05,1.91a448.64,448.64,0,0,1-61.76,47.47c-.86.55-1.73,1.1-2.58,1.6q-6.42,4.07-12.46,7.63l-2.41,1.4-2.36,1.36-2.34,1.35-2.22,1.28c-8.35,4.68-15.91,8.59-22.38,11.76l-1.61.8c-10.63,5.15-18.11,8.22-21,9.35l-.42.18-.61.23-.14.06h-.08l-.23-.1-.21,0-1.07-.42-.55-.23c-.87-.34-2-.8-3.36-1.38l-.47-.18c-1.76-.8-3.88-1.67-6.33-2.77l-1.39-.61a443.16,443.16,0,0,1-39.74-20.6c-.8-.45-1.61-.92-2.36-1.38a473.14,473.14,0,0,1-44.78-30l-2.62-2c-1-.75-2-1.52-2.95-2.29l-2.81-2.21c-6.19-4.92-12.43-10.15-18.64-15.69L558.08,566q-2.3-2.05-4.59-4.2l-1.67-1.57L550,558.54l-2-1.94c-1.12-1.07-2.24-2.16-3.34-3.26-.84-.8-1.69-1.67-2.52-2.51l-.24-.26q-1.25-1.25-2.5-2.51c-.66-.68-1.32-1.36-2-2l-2-2.07-.13-.15-2.1-2.24q-3.36-3.61-6.66-7.36c-.68-.8-1.36-1.55-2-2.35-.57-.65-1.12-1.28-1.66-1.94l-2-2.39q-4.26-5.11-8.39-10.48-1.13-1.45-2.24-2.92c-1.89-2.47-3.73-5-5.57-7.55l-1.68-2.39c-.13-.16-.24-.34-.36-.5-.59-.85-1.19-1.7-1.77-2.55-.95-1.38-1.89-2.77-2.82-4.17q-1.11-1.64-2.18-3.31l-.15-.24-2.22-3.47c-.07-.13-.15-.24-.22-.37-.71-1.14-1.41-2.27-2.1-3.4s-1.49-2.46-2.21-3.7-1.44-2.39-2.13-3.67q-4.6-8-8.77-16.47c-.35-.69-.69-1.38-1-2.08-.22-.44-.44-.89-.65-1.35-.43-.87-.8-1.75-1.25-2.63a27.17,27.17,0,0,1-1.15-2.47l-.23-.48c-.26-.58-.52-1.16-.8-1.75l-.26-.57c-.26-.58-.52-1.18-.8-1.77q-1.44-3.26-2.78-6.58c-.42-1-.8-2-1.23-3.07-.1-.26-.21-.53-.31-.8-.4-1-.8-2-1.16-3s-.68-1.82-1-2.74l-.23-.65c-.18-.45-.34-.91-.5-1.36q-1-2.69-1.89-5.44c-.21-.6-.4-1.21-.6-1.8-.26-.8-.51-1.54-.75-2.31-.14-.42-.26-.8-.39-1.22-.26-.8-.5-1.6-.75-2.39-.31-1-.61-2.06-.92-3.1-.18-.65-.39-1.28-.57-2-.37-1.28-.74-2.58-1.08-3.89-.19-.68-.37-1.35-.55-2-.13-.5-.26-1-.39-1.51-.32-1.22-.63-2.46-.92-3.7-.18-.7-.35-1.4-.52-2.11-.07-.29-.13-.57-.19-.85-.37-1.55-.71-3.11-1.07-4.69-.26-1.16-.5-2.33-.74-3.5-.14-.71-.29-1.43-.43-2.14s-.32-1.6-.47-2.45a2.13,2.13,0,0,0-.1-.47c-.15-.8-.3-1.64-.45-2.48s-.31-1.84-.47-2.77-.3-1.8-.45-2.71q-.87-5.52-1.56-11.17A314.73,314.73,0,0,1,447,328.58V122.76Z"
       transform="translate(-445.5 -121.26)"
       id="path37169" />
  </g>
  <g
     id="Layer_8"
     data-name="Layer 8">
    <path
       class="cls-2"
       d="M687,122.76V647.2l-.14,0-.21,0-1.07-.42-.54-.23c-.87-.34-2-.8-3.37-1.38l-.46-.18c-1.76-.8-3.89-1.67-6.33-2.77l-1.39-.61a442.25,442.25,0,0,1-39.75-20.6c-.8-.44-1.6-.92-2.35-1.38a474,474,0,0,1-44.78-30l-2.63-2c-1-.75-2-1.51-2.94-2.29l-2.81-2.21c-6.19-4.92-12.43-10.15-18.64-15.69L558.08,566q-2.31-2.05-4.59-4.2l-1.67-1.57L550,558.54l-2-1.94c-1.12-1.07-2.23-2.17-3.33-3.27-.85-.79-1.69-1.66-2.52-2.5l-.24-.26c-.84-.83-1.67-1.67-2.5-2.51-.66-.68-1.32-1.36-2-2l-2-2.06-.13-.15-2.1-2.25q-3.36-3.6-6.66-7.36c-.68-.79-1.36-1.54-2.05-2.34-.57-.65-1.12-1.29-1.66-1.94q-1-1.2-2-2.4-4.28-5.1-8.39-10.48c-.76-1-1.5-1.93-2.24-2.92-1.89-2.47-3.73-5-5.57-7.55-.55-.8-1.12-1.59-1.68-2.39-.13-.16-.24-.34-.36-.5-.59-.86-1.19-1.7-1.77-2.56-.94-1.38-1.89-2.77-2.81-4.17-.74-1.09-1.47-2.2-2.19-3.31a1,1,0,0,0-.15-.24l-2.22-3.48-.22-.36c-.7-1.14-1.41-2.27-2.1-3.4s-1.49-2.46-2.21-3.71-1.43-2.39-2.13-3.67q-4.61-8-8.77-16.46c-.35-.69-.69-1.38-1-2.09-.22-.44-.44-.88-.65-1.35-.43-.87-.8-1.74-1.25-2.63a25.91,25.91,0,0,1-1.15-2.47l-.23-.48c-.27-.58-.53-1.16-.81-1.75l-.26-.57c-.27-.59-.52-1.19-.8-1.78q-1.44-3.25-2.79-6.57c-.42-1-.8-2-1.23-3.08-.1-.25-.21-.52-.31-.79-.4-1-.8-2-1.16-3s-.69-1.82-1-2.74l-.24-.65c-.17-.44-.33-.91-.49-1.35q-1-2.7-1.9-5.44c-.21-.6-.4-1.2-.6-1.8-.26-.8-.51-1.54-.75-2.32-.14-.41-.27-.8-.4-1.22-.25-.8-.49-1.59-.75-2.39-.31-1-.61-2.06-.92-3.11-.19-.64-.39-1.28-.57-1.95-.37-1.29-.74-2.58-1.09-3.89-.19-.68-.37-1.35-.55-2-.13-.5-.27-1-.4-1.51-.32-1.22-.62-2.45-.92-3.7-.18-.7-.34-1.4-.52-2.11-.07-.28-.13-.56-.19-.85-.37-1.55-.72-3.11-1.07-4.69-.26-1.16-.5-2.33-.74-3.5-.13-.71-.29-1.43-.42-2.14s-.32-1.59-.48-2.45a1.86,1.86,0,0,0-.09-.47c-.16-.8-.3-1.64-.45-2.48s-.32-1.84-.48-2.77-.29-1.8-.45-2.71q-.57-3.7-1.07-7.47c-.17-1.23-.33-2.47-.48-3.71A312.68,312.68,0,0,1,447,328.83V122.76Z"
       transform="translate(-445.5 -121.26)"
       id="path37172" />
  </g>
  <g
     id="Layer_9"
     data-name="Layer 9">
    <path
       class="cls-3"
       d="M614.38,526s7.38,3.72,10.13,5.65,4.38,9.44,1.63,12.31c0,0-4.35-4.73-6.2-7.07a.07.07,0,0,0-.13.07c.59,1.53,2.52,6.49,3.58,7.93,0,0-2.87,2.92-8.5,0,0,0-.25-5.3-2-5.67a52.33,52.33,0,0,1-6.62-2.71s1.82-5.69.5-8.16c-2.75-5.13-7.87-14.26-23.37-37.26,0,0,8.88-5.12,11.63-14.12s-3.12-23.5-13.12-34.87c0,0-5.37-13.62-5.5-20.62,0,0-2.62,3.25-.75,12.75,0,0-1,3.36-2.68,1.45a1.05,1.05,0,0,0-1.71.11c-.68,1.12-1.6,2.72-2.24,4.07-1.12,2.38-6.75,5.5-6.75,5.5a54.57,54.57,0,0,1,3.17-4.7.08.08,0,0,0-.11-.12c-1.19.82-4.51,3-5.94,3.45,0,0-.39-2.9,5.88-9.28a13.78,13.78,0,0,0,3.81-7.44c.69-4.28,2-11.51,2.44-16,.75-7,5.13-12.25,13.88-26.25,0,0,11.29-17.5,12.13-22.83s1.83-14.33,3.83-15.67-.83-13-.83-13L650,318.67s1.83,12.67,4.17,19.67-7,27.83-7,27.83l-5.83-3.25s6.33-10.42,6.5-14.5,1.25-15.83-4.17-24.42c0,0-1.5,3.17.42,7.83s2.08,20.67-6.5,32.58c0,0,21.83,12.92,26.92,13.17s8.17.08,10.67,4.75,8.5,13.75,8.92,15.83l-5.5.42s-2.83-7.33-4.75-8.58c0,0-.83,2.75,2.33,8l-5.33.42s-1.08-8.67-4.33-9.33-5,1.48-5.42.57,2.42-4.49-1.75-5.65-18.67-2.08-44.92-22.83a18.38,18.38,0,0,0,2.75-7.08c.92-4.67-6.42-12.33-7.42-12.17s-.08,2.5,2.17,4.92,2.83,5.75,2.5,6.17-5.17-5.33-5.75-6.08-2,1.75.67,4.33,5.58,5.08,4.83,7.08-2.33,2.75-2.17,3.33,10.42,8.8,26.58,17.53c0,0-20.83,19.64-24.67,28.06,0,0-.67,2.33,2.33,6.25s14.83,14.75,24.33,24.58,4.58,29.33,3.75,32.25-5.67,10.83-8,12.5c0,0-2.58,4.67,6.67,12.08s15.42,19.92,24.33,21.75c0,0,2.28-.44,5.17,5.25,3,5.92,2.08,5.42,2.08,5.42s-1.75,2.21-3.17,2.4-3.25-5.48-4.75-5.73-2.25.83-.75,2.58,3.08,3.92,2.92,4.58-7.58,1.58-9.08-.08.33-6.67-1.33-7.33-9.42-2.25-9.67-3.58,1.33-7.08-5.33-10.92-22.83-19-23-20.17,4.83-5,5.83-8.58.42-15.92-6.25-22.83c0,0-1.33-13.08-2.42-17.25-.88-3.38-5.42-14.09-8.64-19.56a15.11,15.11,0,0,1-2.12-7.16c-.17-5,1-13.27,0-15,0,0-1.5,0-1.58,5.75s-.5,12.92.92,15.92S614,436.44,615,439.67s3,14.92,2.42,21.42-8.5,22.17-17.83,30.17C599.58,491.25,608.54,514,614.38,526Z"
       transform="translate(-445.5 -121.26)"
       id="path37175" />
    <path
       class="cls-3"
       d="M599.42,323s-.46-8.27,0-10.4c0,0-2.92,1.52-3.29,3.63a39.74,39.74,0,0,1,1.65-16.13s-4.72,3.26-5.37,5.44a24.38,24.38,0,0,1,5-14.82,7.5,7.5,0,0,0-5,4.38s-.19-7,7-13.37c0,0-3.67-.75-5.54,1.75,0,0,5.88-14.37,12.75-16.25a25.57,25.57,0,0,0,3.88-.62s-19.37-8.37-19.25-18.5c0,0,6.88,4.13,12.25,2.63s14.58-1,17.67,4.63c0,0,5.08-2.37,5.46-3.62s-1-7.5-6.29-8.5-29.09-9-32.09-14.25-11.12-12.71-5.62-21.17,8.63-9.71,11.75-10c0,0-7.37,6.38-7.37,11.38s-.37,11.75,6.5,17.13c0,0-.75-10.75.5-13.87s6.5-9.5,6.5-9.5a33.26,33.26,0,0,0-2.75,16.38c1,8.63,2.5,11.5,10.13,14.5,0,0-3.75-7.62-3.5-11.5s3-8.5,3-8.5-.12,9.75.63,11.63,3.88,8.5,8.5,9.5c0,0-1.75-10.87,4.13-13.87,0,0-2,9.25-.37,12s2.38,5.63,5.25,5.25,2-9.12,12.56-8.37c0,0-13.56,7.88-6.31,20.63,0,0,10.75-2.87,10.94-8.5A32.3,32.3,0,0,0,640.75,231s5,4.13,5,7.5a92.16,92.16,0,0,1-1.06,10.13l9.06-.87s8.63-6.37,8.75-15c0,0,2.5,2.88,1.38,8.13a16.43,16.43,0,0,1-4,8s8.22-.12,10.05-7.87,1-12.5,1-12.5,3-.5,3,4.88-3,14.75-3,14.75,8.58-4.5,8.83-7.75-1.83-13.75-1.83-13.75,3.44,1.13,4.14,5.75,0,12.25,0,12.25,9.95-6,9.82-10.75.58-11.69-5.29-16.87a6.3,6.3,0,0,1,4.79,2.88c2,2.88,6.5,14-.12,22.75S668.79,253.88,666.58,254s-27.33-6.37-30.46.5c0,0,7.25,1.5,9.25,4.63s7.79,9.13,19.46,14.38,7.29,16.27,7.29,16.27-8.12,1.13-12.75-3c0,0-4-1.81-2.5,1.4s3.29-.12,4.71,3.42-.33,2.95-2.71,1.74-2.87-5.2-11.5-5.7-20.25-5.43-21.62-11.47-3.08-19.14-22.58-19.58a23.24,23.24,0,0,1,8.33,3.05c5.75,3.72,10.08,1.41,9.67,12.07s11.48,17.82,14.41,21.62,10.05,13.85,10.68,16.76S621.17,322,621.17,322l-21.75,5.13Z"
       transform="translate(-445.5 -121.26)"
       id="path37177" />
    <path
       class="cls-3"
       d="M646.5,258.63s5,4.81,6.19,6.06c0,0,6.52-.5,8.64-3.88C661.33,260.81,656.69,256.56,646.5,258.63Z"
       transform="translate(-445.5 -121.26)"
       id="path37179" />
    <circle
       class="cls-4"
       cx="191.42"
       cy="145.91"
       r="2.75"
       id="circle37181" />
    <path
       class="cls-2"
       d="M634.78,257.75a14.73,14.73,0,0,1,7,1.83,9,9,0,0,1,2.84,2.54l.52.84.4.71a14.81,14.81,0,0,0,.91,1.36,26.28,26.28,0,0,0,4.73,4.72A21.27,21.27,0,0,0,657,273.1h0a.5.5,0,0,1-.27,1,18.31,18.31,0,0,1-6.47-3,23.4,23.4,0,0,1-5.23-4.9,16.62,16.62,0,0,1-1-1.5l-.46-.8-.39-.64a8.17,8.17,0,0,0-2.25-2.11,17.6,17.6,0,0,0-6.15-2.32h0a.5.5,0,0,1,.11-1Z"
       transform="translate(-445.5 -121.26)"
       id="path37183" />
    <path
       class="cls-5"
       d="M658.67,283.42s-.42-5.83,5.33-4.5"
       transform="translate(-445.5 -121.26)"
       id="path37185" />
    <path
       class="cls-2"
       d="M664.17,286.89a12.68,12.68,0,0,0-.55-2.47c-.06-.15-.15-.25-.14-.22s0,0,0,0h0s.08,0-.05,0a1.1,1.1,0,0,1-.58-.31,1.07,1.07,0,0,1-.28-.65,1.41,1.41,0,0,1,.17-.76,2.35,2.35,0,0,1,.3-.44,3.2,3.2,0,0,1,.7-.62,3.69,3.69,0,0,1,1.67-.59,3.88,3.88,0,0,1,1.71.27,5.47,5.47,0,0,1,2.39,2,.5.5,0,0,1-.75.66h0a5.51,5.51,0,0,0-2.09-1.33,2.33,2.33,0,0,0-2,.32,1.76,1.76,0,0,0-.35.32.75.75,0,0,0-.09.14s0,.06,0-.09a.56.56,0,0,0-.15-.33.54.54,0,0,0-.27-.16c-.08,0,.07,0,.11,0l.2.07a1.09,1.09,0,0,1,.33.19,1.94,1.94,0,0,1,.64.93,6,6,0,0,1,.08,3.11.5.5,0,0,1-1,0Z"
       transform="translate(-445.5 -121.26)"
       id="path37187" />
    <path
       class="cls-6"
       d="M650,318.67,600.5,333.5c-.85-4.36-6.4-9-9.18-11.12a3.85,3.85,0,0,1-.89-1.19,3.07,3.07,0,0,0,1.88-2.16,7.38,7.38,0,0,1,2.71,1c3.58,2.36,8,5.44,8,5.44,1.11-2.22,1.09-7.58,1-9.58a3.06,3.06,0,0,0,2,.28,3,3,0,0,0,2.15-1.65c2.22,2,7.18,7.83,7.18,7.83,1.57-1.68,3.21-8.72,3.69-10.92a3,3,0,0,0,1.87.21,3.09,3.09,0,0,0,2.2-1.74c4,3.15,8,6.82,8,6.82a28.7,28.7,0,0,1,3.51-9.84,3,3,0,0,0,1.55.09,3.22,3.22,0,0,0,1.08-.43c2.61,2.59,4.49,8.31,4.49,8.31,1.52-5.48,5.3-10.61,6.74-12.43a3.06,3.06,0,0,0,3.24,1.44l.17,0C649.28,310.35,650,318.67,650,318.67Z"
       transform="translate(-445.5 -121.26)"
       id="path37189" />
    <path
       class="cls-7"
       d="M599.42,331s36.41-12.17,50.49-15.25"
       transform="translate(-445.5 -121.26)"
       id="path37191" />
    <path
       class="cls-6"
       d="M592.31,319a3.07,3.07,0,0,1-1.88,2.16,3.8,3.8,0,0,1-.51.15,3.08,3.08,0,1,1,2.42-3.63A2.93,2.93,0,0,1,592.31,319Z"
       transform="translate(-445.5 -121.26)"
       id="path37193" />
    <path
       class="cls-6"
       d="M608.2,314.55A3,3,0,0,1,606,316.2a3.06,3.06,0,0,1-2-.28h0a3,3,0,0,1-1.62-2.13,3.08,3.08,0,0,1,6-1.21A3,3,0,0,1,608.2,314.55Z"
       transform="translate(-445.5 -121.26)"
       id="path37195" />
    <path
       class="cls-6"
       d="M623.14,309.93a3.09,3.09,0,0,1-2.2,1.74,3,3,0,0,1-1.87-.21,3.14,3.14,0,0,1-1.76-2.21,3.08,3.08,0,0,1,6-1.21A3,3,0,0,1,623.14,309.93Z"
       transform="translate(-445.5 -121.26)"
       id="path37197" />
    <path
       class="cls-6"
       d="M637.26,306.57a3.22,3.22,0,0,1-1.08.43,3,3,0,0,1-1.55-.09,3.08,3.08,0,1,1,4-3.53A3.11,3.11,0,0,1,637.26,306.57Z"
       transform="translate(-445.5 -121.26)"
       id="path37199" />
    <path
       class="cls-6"
       d="M651.9,303.85l-.17,0a3.06,3.06,0,0,1-3.24-1.44,2.92,2.92,0,0,1-.39-1,3.08,3.08,0,1,1,3.8,2.38Z"
       transform="translate(-445.5 -121.26)"
       id="path37201" />
    <path
       class="cls-5"
       d="M591.25,492.5s6.88,16.33,10.63,22.17"
       transform="translate(-445.5 -121.26)"
       id="path37203" />
    <path
       class="cls-5"
       d="M628.25,489.67s6.67,8.67,14.25,13.92"
       transform="translate(-445.5 -121.26)"
       id="path37205" />
    <path
       class="cls-5"
       d="M623.75,450.42s7.17,6.33,8.17,20.17"
       transform="translate(-445.5 -121.26)"
       id="path37207" />
    <path
       class="cls-5"
       d="M589.58,444.83c.33,0,5.44,7.64,8.08,12.33,3,5.33,1.75,13.42,1.75,13.42"
       transform="translate(-445.5 -121.26)"
       id="path37209" />
    <path
       class="cls-5"
       d="M610.17,413.58a83,83,0,0,1,5.12-7.21"
       transform="translate(-445.5 -121.26)"
       id="path37211" />
    <path
       class="cls-5"
       d="M609.63,424.5s1.52-6.72,5.66-11.4"
       transform="translate(-445.5 -121.26)"
       id="path37213" />
    <path
       class="cls-5"
       d="M611.66,428.12a33.55,33.55,0,0,1,6.05-11.91"
       transform="translate(-445.5 -121.26)"
       id="path37215" />
    <path
       class="cls-5"
       d="M633.5,359.38c0-.37,9.75-11.25,6.25-24.87"
       transform="translate(-445.5 -121.26)"
       id="path37217" />
    <path
       class="cls-5"
       d="M619.5,360.63s2.88-1.42,4.75.54,12.75,11,27.63,17.33"
       transform="translate(-445.5 -121.26)"
       id="path37219" />
  </g>
  <g
     id="Layer_6"
     data-name="Layer 6">
    <path
       class="cls-8"
       d="M705.75,276.16s.33,4.68,4.67,4.76c0,0,.66-2.53-.79-6.58,0,0,1.29,3.67,4.62,4.33,0,0-.17-4.91,0-6.85"
       transform="translate(-445.5 -121.26)"
       id="path37222" />
    <path
       class="cls-8"
       d="M712.51,286.7s-1.51-.45-3-5a5.92,5.92,0,0,1,5.8,3.62s-1.63-3.87-1-5.45c0,0,3.58,1,4.67,3.47"
       transform="translate(-445.5 -121.26)"
       id="path37224" />
    <path
       class="cls-8"
       d="M757.84,544.92s-3.18.58-3,7c0,0,5.83-3.92,8.67-4.75"
       transform="translate(-445.5 -121.26)"
       id="path37226" />
    <path
       class="cls-8"
       d="M730.43,528.82s-4.35,2-2.35,8.77c0,0,2.61-3.27,5.3-4"
       transform="translate(-445.5 -121.26)"
       id="path37228" />
    <path
       class="cls-8"
       d="M735.33,534s-1.58,3,.83,7.67c0,0,2.67-5.08,4.67-6.17"
       transform="translate(-445.5 -121.26)"
       id="path37230" />
    <path
       class="cls-8"
       d="M742.18,537s-1.1,5.29,2.07,7.95c0,0,1.34-4.5,3.63-5.17L746.42,537l-1.48-.44Z"
       transform="translate(-445.5 -121.26)"
       id="path37232" />
    <path
       class="cls-8"
       d="M686.5,523.25s0,4.07,1,5.57a15.47,15.47,0,0,1,2.87-3.82c1.63-1.43-2.25-.31-2.25-.31Z"
       transform="translate(-445.5 -121.26)"
       id="path37234" />
    <path
       class="cls-8"
       d="M692.07,525.07s-.2,4.18,2.55,6.61a13.75,13.75,0,0,1,3.66-3.7"
       transform="translate(-445.5 -121.26)"
       id="path37236" />
    <path
       class="cls-8"
       d="M705.92,529.73s-.54,3.65-2.42,5.27c0,0,5.71,2,8-4.43Z"
       transform="translate(-445.5 -121.26)"
       id="path37238" />
    <path
       class="cls-9"
       d="M699.94,388.13a6.92,6.92,0,0,1-.44,3.06,7.82,7.82,0,0,0,5-1.53S702.06,387.88,699.94,388.13Z"
       transform="translate(-445.5 -121.26)"
       id="path37240" />
    <path
       class="cls-8"
       d="M687,387.81s-.37,4,1.94,6.19a3.47,3.47,0,0,1,1.94-3.19S688.75,386.44,687,387.81Z"
       transform="translate(-445.5 -121.26)"
       id="path37242" />
    <path
       class="cls-9"
       d="M682.05,384.56s-1.3,1.06.63,4c0,0,1.25-2.82,2.62-3.35C685.31,385.22,684.42,381.69,682.05,384.56Z"
       transform="translate(-445.5 -121.26)"
       id="path37244" />
    <path
       class="cls-9"
       d="M682.57,377.2s-2.63-.14-2.69,4c0,0,2.32-1.36,3.25-1.12Z"
       transform="translate(-445.5 -121.26)"
       id="path37246" />
    <path
       class="cls-10"
       d="M798.66,278.94a6.4,6.4,0,0,0,.06-5.4c-3-6.47-.91-5.57,1.72-3.37,2.43,2,3.66,12.91,4,17a.35.35,0,0,0,.68.09c13.87-38.12-23.52-70.75-25-72a.09.09,0,0,0-.11,0c-8.18,4.13-9.79-2-18.27-2-7.41,0-7.6-2.79-7.53-3.5,0-.08-.07-.12-.15-.13-5.68-.4-10.54,1-11.35,1.55s.08-2,.13-2.07c3.37-5.75,14.56-.71,19.55-3.69.9-.53.39-1.57,1.15-.86-1.38-1.3-56.66-4.07-71,.2a3.47,3.47,0,0,1-4.67-4c.45-1.77,2.65-3.44,4.43-3.89,27.35-7,60.33-1.59,64.34-.89a.14.14,0,0,0,.11-.23,7.21,7.21,0,0,1-1.85-3.54.12.12,0,0,1,.13-.14c1.55.22,14.37,2,17.35,2,3.17,0,2.67.17,9.17,4,6.19,3.65,4.67,10.32,4.51,11a.08.08,0,0,0,0,.08c18.48,15.67,30,41.8,31.46,48.13,1.36,5.73-1.24,18.54-1.75,20.94a.13.13,0,0,0,.21.12c.77-.68,2.8-2.37,3.2-1.56.5,1-.5,8.67-.33,11.5a89.66,89.66,0,0,1-1.33,16.5c-1.17,7.17-6.83,6.83-10.5,9.33s-1.5,28.67-1.5,35.17,11.6,18.93,11.67,19h0c7.67,2.5,20,5.67,19.33,16.5-.62,10.1-6,11.8-6.75,12a.1.1,0,0,0-.08.11c.2,7.39,5.09,26.12-12.84,35.41s-24.5-4.33-24.5-4.33,2.17,4.67.67,11.67c-1.39,6.5-1.35,17.6-1.34,19.15a.12.12,0,0,1-.18.11c-.44-.21-1.62-1-3.32-3.59-1.82-2.79-2.58-7.69-2.78-9.21a.13.13,0,0,0-.25,0c-.72,1.65-3.12,7.69-1,10.41,2.48,3.17,6.18,17.5,3.68,13a21.75,21.75,0,0,0-6.33-7s.33-1.33,1,6.5,17.33,10.5,16.17,13.17-6.5-.67-7.83,1.33,2.67,4.17,9.83,5.67.5,14.33,0,10.5-6.33-8.83-5.33-5.33a54.75,54.75,0,0,1,1.5,11.83c.17,3.83-4,11.67-5.17,10.5s.67-6-.83-4.17-1,7.5-1.67,9.65-4.33,8-6,7.85.67-5.17,0-7.33-2.5,2.83-3.5,8.33-2.83,11.83-5,6.83-6-3.67-4.67,3.17-5.67,6.17-5.67,6.17c-5.41-.39-6.85-3.24-7.09-5.57a1.62,1.62,0,0,0-2.45-1.16c-7.15,4.2-6-5.12-9.79-3.77-4.17,1.5-3-2.5-8.83-2.67s-6.83-8.83-1-11.17c5.33-2.13,6.76,2,7,2.73a.12.12,0,0,0,.14.08,4.69,4.69,0,0,1,6,3.55c0,.08.08.09.14,0,1.21-1.31,4-.57,4.06-.54h0c9.26,1,16.91-4.87,18.39-6.11a.13.13,0,0,0-.09-.23c-5.46-.06-7-1.54-7.38-2a.12.12,0,0,1,.07-.19,30,30,0,0,0,14.29-8.38.12.12,0,0,0-.11-.2,17.35,17.35,0,0,1-7.87-1.09.12.12,0,0,1,0-.23c6.78-2.64,10.5-11.05,10.5-11.05-1.17.25-3.66,3.36-4.38,3.84a.13.13,0,0,1-.2-.13c.32-1.65,1.66-9.74-2.23-11.54s-5.5-7.68-5.9-9.27a.13.13,0,0,0-.24,0,59.16,59.16,0,0,0-2.33,9.64.13.13,0,0,1-.17.1c-7.64-3-7.59-16.81-7.53-19.12a.13.13,0,0,0-.22-.1,30.55,30.55,0,0,0-4.81,7,.13.13,0,0,1-.23,0c-4.08-9.2-.29-17.76,1.64-21.18a.13.13,0,0,0-.23-.14c-1.82,2.58-3.37,6.37-4.47,5.41s-1.3-4.93-1.33-6.24a.14.14,0,0,0-.25-.07c-7.42,11-1.31,20.44-.24,21.94a.13.13,0,0,1-.11.2c-2.88-.22-5.69-3.86-6.5-5a.13.13,0,0,0-.24.08c0,3.74,2.64,8,6.34,11.09s4.83,10,2.33,10.17c-2,.13-4.21-2.4-5-3.42a.13.13,0,0,0-.23.11c1.41,8.75-2.62,15.63-4.09,14.81a6.15,6.15,0,0,1-2.11-3,.13.13,0,0,0-.25,0c-.37,7.24-4,14-5.81,14-1.45,0-2.17-2.9-2.41-4.13a.13.13,0,0,0-.25,0c-2.56,8.38-7.68,14.06-7.84,10.3s-3-5.5-3.67-2.83.17,7.5-5.83,9.17-6-5-6-5c-2.39-5.58-5.4,1.35-5.65,2a.1.1,0,0,1-.07.05c-5.93,1.46-2.63-3-8.28-2.85s-5.83-8.67-2.67-10.67,7.26.95,7.33,1h0c10.45,1.57,14.26-2.14,15.12-3.22a.13.13,0,0,0-.14-.2c-3.92.87-4.7-.16-4.61-1.29a2.39,2.39,0,0,1,2.17-2.08c10.39-1.07,13-4.74,13.51-5.66a.13.13,0,0,0-.14-.18c-4.07.47-5.93-.34-6.53-.7a.13.13,0,0,1,0-.23c9.11-2.45,12.16-7.1,13.15-10.39a6,6,0,0,0-1.27-5.58c-4.56-5.42-5.54-9.75-5.76-11.23a.13.13,0,0,0-.26,0c-1.11,3.35.07,7.29.43,8.35a.13.13,0,0,1-.18.16c-7.68-3.46-8-14.1-7.91-16.88a.13.13,0,0,0-.25-.05,27.15,27.15,0,0,0-1.85,7.37.13.13,0,0,1-.24.05c-7.33-10.73,1.67-20.91,4.44-23.65a.13.13,0,0,0-.16-.21,69.26,69.26,0,0,0-8.49,6.44.13.13,0,0,1-.21-.12c1-8.22,6.81-12.9,11.19-15.32a.87.87,0,0,0-.29-1.63H718a.87.87,0,0,1-.44-1.45c7-7.76,27.66-7.8,31.05-9.09s7.2-5.93,7.63-6.45a.08.08,0,0,0,0-.11c-2.16-3.33-4.63-8.28-4-8.61s3.22,2.08,3.22,2.08,2.95,2.42.11-1.58-22.5-28.5-24.83-30.67-11.55-1.1-12.43-1a.08.08,0,0,0-.08.08c-.37,2.89-3,10.38-5.82,4.6-2.68-5.52-2.82-.75-2.83-.21a.09.09,0,0,1,0,.08c-.36.25-3.15,2-8-.36s-5.73,2.45-5.82,3.1a.11.11,0,0,1-.09.09c-6.23,1.21-7.61-2.85-7.74-3.31a.1.1,0,0,0-.06-.06c-5.11-2.17-3-6.16-4.62-9.48s4.57-4,4.67-4h0c18.92,7,31.93-9.84,33.08-11.39a.11.11,0,0,0,0-.17c-7-3.26-5.37-15.3-5-19.61s5-8,5-8c-3.72,3-5.45,1.7-5.78,1.39a.11.11,0,0,1,0-.14,20.39,20.39,0,0,0,1.68-11.29.12.12,0,0,0-.23,0c-2.7,3.68-7,1.51-7.83,1a.12.12,0,0,1,0-.2c.76-.58,4.28-3.39,5-6.06s4-6.65,4.57-7.38a.11.11,0,0,0-.05-.18c-10.38-4-8.67-9.46-8.38-10.19a.1.1,0,0,1,.13-.06c15.1,3.94,22.24-3.86,20.57-7-1.41-2.69-.07-6.69.37-7.85a.13.13,0,0,0-.19-.15c-12.07,6.59-5.57,11.81-11.85,10a9.31,9.31,0,0,1-6.66-8.09.1.1,0,0,1,.07-.11c3.08-1,11.54-6.41,12.36-6.93a.1.1,0,0,0,0-.12c-3.16-9.26-6.15-10.41-9.31-8.42s-9.67,5.33-11.5,4.33,3.17-3.33.67-3.5-1.84-3.61-1.83-3.67h0c-2.19-1.57-1-5.2-.84-5.62A.08.08,0,0,1,702,263c5.9-2.16,22.55-15.55,23.27-16.13l.06,0c17.86-2,26.58-7.91,27.54-8.6a.12.12,0,0,1,.17,0c1.94,2.38-.27,6.62-.8,7.56a.12.12,0,0,0,.11.18c6.67-.23,15.5,2.88,16.66,3.3a.13.13,0,0,1,.07.17c-1,2.5-3.78,4.28-4.57,4.75a.12.12,0,0,0,0,.22c14.23,5.63,15.19,14.1,15.26,15.53a.12.12,0,0,1-.18.1c-10.56-6.38-14.07-2.22-14.7-1.24a.12.12,0,0,0,.11.18c19.79-.32,21.77,22.34,20.27,21.67s-4.33-5.5-9.83-6.33c-4.5-.68-6.54.75-7.14,1.3a.13.13,0,0,0,.08.22c22.52,2,16.22,24,15.46,26.43a.11.11,0,0,1-.2,0A54.34,54.34,0,0,0,770,299.81a.13.13,0,0,0-.19.14c.71,4.27,6.39,5.53,10.79,12.05s.5,14.83-.83,16.83c-1,1.57-3.52-2.29-4.55-4a.13.13,0,0,0-.24.1c1.14,5.38-.2,9.44-3,12.6-3,3.33-1.33,17.17-.83,23.33s13.5,71,35.5,66.5c21.16-4.33,14.57-26.38,14-28.06a.12.12,0,0,0-.14-.08,12.72,12.72,0,0,1-12.89-5.36c-5.33-7.33,0-11.33-2.67-15a21.11,21.11,0,0,1-3.29-6.35.13.13,0,0,1,.12-.16,18.51,18.51,0,0,1,10.66,2.36.13.13,0,0,0,.17-.19A239.3,239.3,0,0,1,798.28,351c-2.67-5.33-1.67-16.67-1.67-24.83,0-7.39,3.41-17.09,4.06-18.88a.13.13,0,0,0-.18-.15c-4.58,2.1-5.38-.2-5.38-3.3,0-2.34,2.28-2.86,3.47-3a.25.25,0,0,0,.13-.44c-1.88-1.52-2.5-3.75-3.26-5.42-.83-1.83,2-7.15,1.83-10.65a.11.11,0,0,1,0,0Z"
       transform="translate(-445.5 -121.26)"
       id="path37248" />
    <path
       class="cls-11"
       d="M664.83,211.08s-30.08.33-41.58-8.75.58-20.75,7.5-21.92,7.08-1.08,6.92.5-2.17,3.92-6.58,5.33-16.51,14.08,30.42,15.83C661.5,202.08,664.5,209.25,664.83,211.08Z"
       transform="translate(-445.5 -121.26)"
       id="path37250" />
    <path
       class="cls-11"
       d="M655.33,174.67s24.5,1.25,36.58,3.75,62.93,11.39,86.73-4.26l.23-.12h0a1.68,1.68,0,0,1,2,2.54,25,25,0,0,1-15.78,9.61,184.16,184.16,0,0,1-78.66-2.24l-.08,0c-.83-.25-15.14-4.52-28.1-4.32a7.13,7.13,0,0,1-4.77-1.61l-.33-.3a1.67,1.67,0,0,1,.41-2.76A3.87,3.87,0,0,1,655.33,174.67Z"
       transform="translate(-445.5 -121.26)"
       id="path37252" />
    <path
       class="cls-11"
       d="M693.25,168.92c-.14.24,5.77,1.77,10.62,3.38a14.49,14.49,0,0,0,8.75.15c8.32-2.51,25.82-7.25,33.37-5.19,0,0,4.83-5.17,8.25-6.75,0,0-16.33-3.67-25.83,0s-21.58,7.08-30.58,6.58C697.83,167.08,694.17,167.33,693.25,168.92Z"
       transform="translate(-445.5 -121.26)"
       id="path37254" />
    <path
       class="cls-1"
       d="M746.86,458.09a55.29,55.29,0,0,1,3.52-7.9,30.48,30.48,0,0,1,2.35-3.67,13.07,13.07,0,0,1,3.18-3.1l.44.89a35.12,35.12,0,0,0-5.94,3,16.4,16.4,0,0,0-4.81,4.43h0l0,.05a.49.49,0,0,1-.88-.34,24.52,24.52,0,0,1,2.46-7.92,40.51,40.51,0,0,1,4.33-7,73.66,73.66,0,0,1,5.41-6.14c1.84-2,3.8-3.89,5-6.26a9.66,9.66,0,0,0,.94-3.79,15.62,15.62,0,0,0-.41-4,47,47,0,0,0-2.57-7.66c-2.09-5-4.53-9.85-7-14.68a.21.21,0,0,1,.37-.19c2.5,4.82,5,9.65,7.14,14.65a47.55,47.55,0,0,1,2.67,7.74,16.26,16.26,0,0,1,.46,4.12,10.36,10.36,0,0,1-1,4.07c-1.24,2.54-3.23,4.5-5,6.49a72.86,72.86,0,0,0-5.3,6.12A39.62,39.62,0,0,0,748,444a23.8,23.8,0,0,0-2.3,7.56l-.92-.29h0a17.34,17.34,0,0,1,5.11-4.73,36,36,0,0,1,6.14-3.14.5.5,0,0,1,.46.88h0a12.12,12.12,0,0,0-2.92,2.87,29.5,29.5,0,0,0-2.27,3.55,54.35,54.35,0,0,0-3.45,7.74h0a.5.5,0,1,1-.94-.34Z"
       transform="translate(-445.5 -121.26)"
       id="path37256" />
    <path
       class="cls-1"
       d="M785.09,419.89a8.68,8.68,0,0,1,2.1,2.5,13.34,13.34,0,0,1,1.26,3,16.19,16.19,0,0,1,.53,3.21c0,.54,0,1.08,0,1.62s-.08,1.08-.14,1.61a0,0,0,0,1,0,0,0,0,0,0,1,0,0c0-1.07-.08-2.14-.22-3.19a19.34,19.34,0,0,0-.63-3.1,15.18,15.18,0,0,0-1.19-2.91,10.56,10.56,0,0,0-1.85-2.52h0a.14.14,0,0,1,.19-.21Z"
       transform="translate(-445.5 -121.26)"
       id="path37258" />
    <path
       class="cls-12"
       d="M756.24,421.89a45.21,45.21,0,0,0,1.5,7.68"
       transform="translate(-445.5 -121.26)"
       id="path37260" />
    <path
       class="cls-12"
       d="M757,415.81s1.18,1,4.69,8.38"
       transform="translate(-445.5 -121.26)"
       id="path37262" />
    <path
       class="cls-12"
       d="M729.83,383.17l1.83-1.67s-6.33-1.33-6.33-3.67c0,0,9.83.83,14.17-3.17,0,0-5.33-1.17-7.08-3.33,0,0,14.75-2.83,20.58-9.33,0,0-6.33-.17-7.83-1.5,0,0,6.8-1.5,9-2.67l-2.48-2.17s6.17-2.17,8.5-5.33c0,0-6.2-2.67-6-4.83,0,0,4.35.67,6.85-1.67,0,0-7.7-5-6.85-9.17h3.67s-1.28-4,1.85-5.29,10.86,9,10.86,9"
       transform="translate(-445.5 -121.26)"
       id="path37264" />
    <path
       class="cls-1"
       d="M759.19,329.54c-.38-1.28-.67-2.55-.93-3.84a34.29,34.29,0,0,1-.54-3.89,19.46,19.46,0,0,1,0-3.93,9.21,9.21,0,0,1,1.13-3.72,9.09,9.09,0,0,0-.88,3.74,19.09,19.09,0,0,0,.23,3.85,38.7,38.7,0,0,0,1.92,7.46h0a.5.5,0,1,1-.94.34Z"
       transform="translate(-445.5 -121.26)"
       id="path37266" />
    <path
       class="cls-12"
       d="M768,315s5,4.49,7,9.9"
       transform="translate(-445.5 -121.26)"
       id="path37268" />
    <path
       class="cls-1"
       d="M720.17,314.17a22,22,0,0,0-2.41,4.38,24.27,24.27,0,0,0-1.43,4.74.5.5,0,0,1-1-.18V323a25,25,0,0,1,2-4.72A22.22,22.22,0,0,1,720.17,314.17Z"
       transform="translate(-445.5 -121.26)"
       id="path37270" />
    <path
       class="cls-1"
       d="M725.33,317.67c-.53,2.78-1,5.59-1.23,8.4-.14,1.4-.23,2.81-.25,4.21a19.25,19.25,0,0,0,.3,4.13h0l-.6-.4a38.06,38.06,0,0,0,5.85-1.89,20.75,20.75,0,0,0,2.73-1.36,10.22,10.22,0,0,0,2.32-1.83h0a.5.5,0,1,1,.74.67h0a11.16,11.16,0,0,1-2.56,2A21.73,21.73,0,0,1,729.8,333a39,39,0,0,1-6,1.94h0a.47.47,0,0,1-.57-.35v-.06h0a20,20,0,0,1-.07-4.34c.1-1.43.28-2.84.5-4.25C724,323.19,724.64,320.41,725.33,317.67Z"
       transform="translate(-445.5 -121.26)"
       id="path37272" />
    <path
       class="cls-1"
       d="M735.63,316.86a29.89,29.89,0,0,0-.31,4.39c0,1.47,0,2.94.07,4.41.12,2.94.33,5.88.61,8.8h0l-.69-.42a43.31,43.31,0,0,0,5.69-3,17.9,17.9,0,0,0,4.77-4.13h0a.5.5,0,0,1,.81.59,14,14,0,0,1-2.35,2.44,26,26,0,0,1-2.7,2A44.23,44.23,0,0,1,735.7,335a.49.49,0,0,1-.65-.25.52.52,0,0,1,0-.18h0c-.16-3-.25-5.91-.24-8.87,0-1.48,0-3,.11-4.44a30.21,30.21,0,0,1,.5-4.42.13.13,0,0,1,.16-.1A.13.13,0,0,1,735.63,316.86Z"
       transform="translate(-445.5 -121.26)"
       id="path37274" />
    <path
       class="cls-1"
       d="M753.95,335.12a16.83,16.83,0,0,1-4.39-3.33,17.5,17.5,0,0,1-3.14-4.45,18,18,0,0,1-1.66-5.14,20.86,20.86,0,0,1-.29-2.68c0-.9,0-1.79,0-2.69,0,.9,0,1.79.09,2.68a20.67,20.67,0,0,0,.41,2.64,17.62,17.62,0,0,0,1.86,5,16.88,16.88,0,0,0,3.23,4.15,16.07,16.07,0,0,0,4.26,2.95l0,0a.5.5,0,1,1-.42.91Z"
       transform="translate(-445.5 -121.26)"
       id="path37276" />
    <path
       class="cls-1"
       d="M719.85,360.78c1.8-1.44,3.56-2.95,5.25-4.52a52.81,52.81,0,0,0,4.8-5,15.66,15.66,0,0,0,1.91-2.84,31.68,31.68,0,0,0,1.05-3.29,16.15,16.15,0,0,1,3.77-5.85,0,0,0,0,1,.06,0,0,0,0,0,1,0,.06,16,16,0,0,0-3.53,5.89,12.32,12.32,0,0,0-.42,1.66,8.73,8.73,0,0,1-.22.86,3.6,3.6,0,0,1-.32.84,16.11,16.11,0,0,1-1.87,3,53.43,53.43,0,0,1-4.69,5.2c-1.66,1.64-3.38,3.22-5.16,4.74a.5.5,0,0,1-.65-.76h0Z"
       transform="translate(-445.5 -121.26)"
       id="path37278" />
    <path
       class="cls-1"
       d="M739,348.17a3.64,3.64,0,0,0-2.31-1,9.54,9.54,0,0,0-2.51.13,7.54,7.54,0,0,0-2.3.88,4.25,4.25,0,0,1-1.4.52,2.44,2.44,0,0,1-1.6-.24,2.94,2.94,0,0,1-1.1-1.1,8.84,8.84,0,0,1-.63-1.25,26.34,26.34,0,0,1-.85-2.56,40.68,40.68,0,0,1-1.1-5.22.14.14,0,0,1,.12-.16.15.15,0,0,1,.16.11c.49,1.7,1,3.38,1.57,5a25.55,25.55,0,0,0,1,2.42,3.85,3.85,0,0,0,1.34,1.85,2.17,2.17,0,0,0,2-.27,7.37,7.37,0,0,1,2.65-.93,7.84,7.84,0,0,1,2.77.17A3.33,3.33,0,0,1,739,348.17Z"
       transform="translate(-445.5 -121.26)"
       id="path37280" />
    <path
       class="cls-1"
       d="M734.73,280.54a28,28,0,0,0,2.34-3.12c.74-1.11,1.44-2.24,2.08-3.4a23,23,0,0,0,1.64-3.57c.23-.61.31-1.17.53-1.94a6.77,6.77,0,0,1,1.09-2c2-2.32,4.79-3.07,6.54-4.82,1-.92,1.95-1.87,3.06-2.74a9.53,9.53,0,0,1,3.91-2h0l-.45,1.39a25,25,0,0,0-3.64-3.17,18,18,0,0,0-4.23-2.29,9.92,9.92,0,0,0-4.63-.63,8.38,8.38,0,0,0-4.23,1.9.5.5,0,0,1-.65-.76,9.47,9.47,0,0,1,4.72-2.3,11.16,11.16,0,0,1,5.23.52,19.38,19.38,0,0,1,4.64,2.32,26.43,26.43,0,0,1,4,3.27.82.82,0,0,1-.39,1.37h-.06c-2.34.43-4.28,2.39-6.27,4.17-2.18,2-5,2.69-6.53,4.56a5.46,5.46,0,0,0-.89,1.53c-.17.51-.32,1.29-.58,1.94a24.1,24.1,0,0,1-1.8,3.73c-.69,1.18-1.43,2.33-2.21,3.44-.39.56-.79,1.11-1.21,1.65a15.62,15.62,0,0,1-1.38,1.62.5.5,0,0,1-.71-.69Z"
       transform="translate(-445.5 -121.26)"
       id="path37282" />
    <path
       class="cls-1"
       d="M737.15,262.17c1.87.23,3.76.41,5.64.55.94.06,1.88.12,2.82.13a11.07,11.07,0,0,0,2.66-.2l.07,0a.5.5,0,1,1,.25,1h0a11.36,11.36,0,0,1-3,.25c-1,0-1.92-.07-2.87-.13-1.91-.14-3.8-.32-5.69-.55a.5.5,0,0,1,.12-1Z"
       transform="translate(-445.5 -121.26)"
       id="path37284" />
    <path
       class="cls-1"
       d="M741.7,257.67a5.24,5.24,0,0,1,1.32-1.17,6.77,6.77,0,0,1,1.57-.73,7,7,0,0,1,1.69-.3,7.17,7.17,0,0,1,1.69.11.5.5,0,0,1-.08,1h0a9.24,9.24,0,0,0-2.9.39,6.91,6.91,0,0,0-1.33.57,7.06,7.06,0,0,0-1.17.79l0,0a.5.5,0,0,1-.71-.69Z"
       transform="translate(-445.5 -121.26)"
       id="path37286" />
    <path
       class="cls-1"
       d="M712.83,255.65a22.14,22.14,0,0,0,2.66,1.21,6.93,6.93,0,0,0,1.28.34,2.85,2.85,0,0,0,1.05-.05,3.82,3.82,0,0,0,1.55-1.69c.48-.81.83-1.77,1.44-2.77a4.33,4.33,0,0,1,1.32-1.4,3,3,0,0,1,1-.4l.51-.07H724c1.08,0,2.12.05,3.16.15,2.06.15,4.11.49,6.13.46h0a.21.21,0,0,1,0,.42,18.39,18.39,0,0,1-3.13.33c-1,.05-2.07.07-3.1.09s-2.05,0-3,.14l-.36,0-.26.06a1.33,1.33,0,0,0-.43.21,2.67,2.67,0,0,0-.71.89c-.42.79-.77,1.79-1.29,2.78a8.54,8.54,0,0,1-1,1.46,3.75,3.75,0,0,1-1.69,1.2,4.07,4.07,0,0,1-2,0,6.47,6.47,0,0,1-1.65-.63,9.21,9.21,0,0,1-2.57-2.06.51.51,0,0,1,.61-.78Z"
       transform="translate(-445.5 -121.26)"
       id="path37288" />
    <path
       class="cls-12"
       d="M703.36,276a59,59,0,0,0,7.14-9.72c1.92-3.61,8.42-4.78,8.42-4.78"
       transform="translate(-445.5 -121.26)"
       id="path37290" />
    <path
       class="cls-12"
       d="M712,273.13s5.35-7.3,5.85-7.3,10.08-.08,10.92.83,1.25,3.35-.42,6.46c0,0,3.42-1.88,4.33-.46s1.17,3.58-2.08,4.92"
       transform="translate(-445.5 -121.26)"
       id="path37292" />
    <path
       class="cls-12"
       d="M732.43,276.43a7.89,7.89,0,0,1,0,5.24"
       transform="translate(-445.5 -121.26)"
       id="path37294" />
    <path
       class="cls-8"
       d="M725.17,254.91s-1.17,3.22,1.75,3.32a5.6,5.6,0,0,0,5.51-3.32S726.75,255,725.17,254.91Z"
       transform="translate(-445.5 -121.26)"
       id="path37296" />
    <path
       class="cls-12"
       d="M725,257s-1.3,4.23,2.2,5.23"
       transform="translate(-445.5 -121.26)"
       id="path37298" />
    <path
       class="cls-8"
       d="M704.24,272.25s-.33-2.26.92-3.42,1.83-6.58-.83-7.33L701,263.17s-1.57,3.5.83,5.67C701.83,268.83,701.4,273.5,704.24,272.25Z"
       transform="translate(-445.5 -121.26)"
       id="path37300" />
    <path
       class="cls-12"
       d="M718.58,291.58s1.71,2.22,4,2.15"
       transform="translate(-445.5 -121.26)"
       id="path37302" />
    <path
       class="cls-12"
       d="M720.67,288.17a7.76,7.76,0,0,0,3.84,1.89"
       transform="translate(-445.5 -121.26)"
       id="path37304" />
    <path
       class="cls-12"
       d="M807.88,397.13s.5-23-3.37-26.62"
       transform="translate(-445.5 -121.26)"
       id="path37306" />
    <path
       class="cls-12"
       d="M814.25,401.5c-.5-.62-3.37-10.5-3.25-16.12s1.29-12.37-3.1-14.87"
       transform="translate(-445.5 -121.26)"
       id="path37308" />
    <path
       class="cls-12"
       d="M817.38,400.88S814.5,393,815.13,387s-2.73-11-4.05-12.87"
       transform="translate(-445.5 -121.26)"
       id="path37310" />
    <path
       class="cls-12"
       d="M820,402.75a84.44,84.44,0,0,1-.87-10.75c.13-3.75,0-12.75-.75-14s-4.75-10.5-1.75-12.87"
       transform="translate(-445.5 -121.26)"
       id="path37312" />
    <path
       class="cls-12"
       d="M817.76,367.25s4.36,8.38,4.61,10.75-.75,13.88.63,19.13"
       transform="translate(-445.5 -121.26)"
       id="path37314" />
    <path
       class="cls-12"
       d="M825,397.13s.88-16.5,0-19.37-2.25-8.25-2-10.5"
       transform="translate(-445.5 -121.26)"
       id="path37316" />
    <path
       class="cls-12"
       d="M827.25,370.5s2.5,6.63,1.63,11.69-.72,14.94-.72,14.94"
       transform="translate(-445.5 -121.26)"
       id="path37318" />
    <path
       class="cls-12"
       d="M832.63,398.13s-2-17.25.88-24"
       transform="translate(-445.5 -121.26)"
       id="path37320" />
    <path
       class="cls-13"
       d="M819.33,399.49s2-1.81,9.69-1.59"
       transform="translate(-445.5 -121.26)"
       id="path37322" />
    <path
       class="cls-12"
       d="M818.58,276c-7.58,5-10.08,12.92-11.5,15.58s.08,8.17,0,10.25-1.92,4.92-1.92,4.92,1.92,2,1.83,8.25"
       transform="translate(-445.5 -121.26)"
       id="path37324" />
    <path
       class="cls-12"
       d="M797.71,279.1s.18,15,8.81,17.14"
       transform="translate(-445.5 -121.26)"
       id="path37326" />
    <path
       class="cls-12"
       d="M795.33,285.83s2.51,10.35,11.59,13.93"
       transform="translate(-445.5 -121.26)"
       id="path37328" />
    <path
       class="cls-12"
       d="M794,290.33c.25.08,4.84,9.64,13,12.15"
       transform="translate(-445.5 -121.26)"
       id="path37330" />
    <path
       class="cls-12"
       d="M803.58,281.5s-1.68,9.09,3.08,11.3"
       transform="translate(-445.5 -121.26)"
       id="path37332" />
    <path
       class="cls-12"
       d="M805.17,306.75s3.33-.5,4-5.17.83-15.75,9.42-21.92"
       transform="translate(-445.5 -121.26)"
       id="path37334" />
    <path
       class="cls-12"
       d="M806.53,309.94s4.64-3.52,5.35-5.36-1-14.5,6.71-20.25"
       transform="translate(-445.5 -121.26)"
       id="path37336" />
    <path
       class="cls-12"
       d="M807,311.83s6.83-4.08,7.25-7.08-.5-10.17,4.33-15.5"
       transform="translate(-445.5 -121.26)"
       id="path37338" />
    <path
       class="cls-12"
       d="M797.25,308.17s-.5-4.62,1.85-6.67"
       transform="translate(-445.5 -121.26)"
       id="path37340" />
    <path
       class="cls-12"
       d="M799.1,308.75c-.38-.62,2.24-4.93,7.43-4.67-8.22.33-12.53-9-12.53-9"
       transform="translate(-445.5 -121.26)"
       id="path37342" />
    <path
       class="cls-12"
       d="M757.44,191.31s1.19,8,12.62,11.25,11.06,7.87,11.06,7.87"
       transform="translate(-445.5 -121.26)"
       id="path37344" />
    <path
       class="cls-12"
       d="M778.38,216.56s.37-5.25,4.13-6.56,3.88-.37,3.88-.37"
       transform="translate(-445.5 -121.26)"
       id="path37346" />
    <path
       class="cls-12"
       d="M760.75,191.31s1.13,5.5,8.53,8.12,12.09,4.28,14,10.3"
       transform="translate(-445.5 -121.26)"
       id="path37348" />
    <path
       class="cls-12"
       d="M765.13,191.63s7.44,6.44,13,9.25a13.54,13.54,0,0,1,6.79,8.48"
       transform="translate(-445.5 -121.26)"
       id="path37350" />
    <path
       class="cls-12"
       d="M751.25,191.63s8.19,10,12.75,11.63,9.89,2.3,16.32,8.27"
       transform="translate(-445.5 -121.26)"
       id="path37352" />
    <path
       class="cls-12"
       d="M754.1,209.54c12,1,14.7-4.76,14.7-4.76"
       transform="translate(-445.5 -121.26)"
       id="path37354" />
    <path
       class="cls-12"
       d="M755.88,215.56s12.24-3.71,15.82-9.71"
       transform="translate(-445.5 -121.26)"
       id="path37356" />
    <path
       class="cls-12"
       d="M760.38,218.88s10.27-5.43,14-11.71"
       transform="translate(-445.5 -121.26)"
       id="path37358" />
    <path
       class="cls-12"
       d="M766.5,220S776,211.59,777,208.78"
       transform="translate(-445.5 -121.26)"
       id="path37360" />
    <line
       class="cls-12"
       x1="274.5"
       y1="212.24"
       x2="277.94"
       y2="209.41"
       id="line37362" />
    <path
       class="cls-12"
       d="M701.83,268.83A9.5,9.5,0,0,1,706,267"
       transform="translate(-445.5 -121.26)"
       id="path37364" />
  </g>
  <g
     id="Layer_10"
     data-name="Layer 10">
    <path
       class="cls-11"
       d="M774.49,170.47c-.17-4-1.14-11.59-5.91-16.37a12.25,12.25,0,0,1,7.34,3.08,38.7,38.7,0,0,0,3.87,3.25,6.2,6.2,0,0,1,2.38,3.14c1,3.18.41,8.84-.92,11.76-1.14,2.49-.79.38-4.52-1.45A4,4,0,0,1,774.49,170.47Z"
       transform="translate(-445.5 -121.26)"
       id="path37367" />
    <path
       class="cls-12"
       d="M776.75,173.14s1.17-6-.67-10.47"
       transform="translate(-445.5 -121.26)"
       id="path37369" />
    <path
       class="cls-11"
       d="M771.33,170.9s.82-8.65-5.55-14.4c0,0,2.21-2.68,5,2.37S773.83,173,773.83,173Z"
       transform="translate(-445.5 -121.26)"
       id="path37371" />
    <path
       class="cls-10"
       d="M751.88,169.05s7.25,2.2,11.27,6.15a.1.1,0,0,1-.12.16c-2.73-1.78-12-7.26-14-1,0,0,9.12.38,13.44,4.63,0,0,6.33,1.39,7.44-1.93s-8.75-9.94-12.44-9.82C757.44,167.25,753.13,166,751.88,169.05Z"
       transform="translate(-445.5 -121.26)"
       id="path37373" />
    <path
       class="cls-10"
       d="M769.28,169.39v-5.08C768.06,153.13,749,154.13,749,154.13c1.88,4.5,8.38,4.75,13.44,6S766.5,167,766.5,167Z"
       transform="translate(-445.5 -121.26)"
       id="path37375" />
    <path
       class="cls-10"
       d="M750,169.39s-1.37-4.27,4.25-4.64,16.92,5,20.77,10.75c0,0-3.41,2.5-6.22,1.19s-8.72-12.69-15.63-6.81C753.17,169.88,751,170.64,750,169.39Z"
       transform="translate(-445.5 -121.26)"
       id="path37377" />
    <path
       class="cls-10"
       d="M750.66,167.22c9.38-8.25,21.47,8.6,23.72,9.35s4-2.24,4-2.24h0a14.21,14.21,0,0,1-5.32-3.7c-7.54-8.43-12.31-11.73-21.78-8.18-3.46,1.3-5.54,6.34-6,8.66a.93.93,0,0,0,1.56.84Z"
       transform="translate(-445.5 -121.26)"
       id="path37379" />
  </g>
  <g
     id="Layer_3"
     data-name="Layer 3">
    <path
       class="cls-14"
       d="M927,122.76V328.6a313.88,313.88,0,0,1-2.28,38c-.11.93-.24,1.86-.36,2.79,0,.2,0,.4-.08.59-.09.74-.19,1.47-.31,2.2-.46,3.37-1,6.69-1.6,10-.07.44-.15.87-.23,1.31-.16.8-.29,1.6-.45,2.4s-.34,1.79-.51,2.69l-.45,2.22-.24,1.15c-.15.71-.3,1.44-.46,2.15-.54,2.37-1.07,4.71-1.61,7l-.58,2.32-.52,2q-1.53,5.88-3.27,11.61c-.29,1-.59,1.94-.9,2.92l-.6,1.88c-.2.63-.4,1.24-.61,1.86-.37,1.09-.73,2.17-1.1,3.25s-.68,2-1,3c-.47,1.28-.93,2.56-1.39,3.81-.36,1-.73,2-1.11,3l-.19.5c-.43,1.14-.87,2.25-1.32,3.36s-.87,2.17-1.31,3.2c0,.15-.12.28-.18.42-.4,1-.8,2-1.25,3s-.76,1.75-1.13,2.62l-.66,1.49c-.48,1.07-1,2.11-1.44,3.15s-.9,2-1.36,2.93l-1,2.12c-.29.63-.6,1.25-.91,1.87-.63,1.33-1.31,2.64-2,4q-2.52,5-5.19,9.77l-2,3.57-.12.21c-1.42,2.47-2.86,4.92-4.33,7.33-.71,1.2-1.46,2.4-2.18,3.54-.11.16-.2.32-.3.47-.55.89-1.12,1.78-1.69,2.66l-.65,1c-.65,1-1.31,2-2,3l-.13.18c-.65,1-1.31,2-2,3l-.45.67q-2.25,3.29-4.54,6.46l-.31.43c-.8,1.07-1.54,2.14-2.31,3.19s-1.66,2.23-2.5,3.32c-1.52,2-3.06,4-4.61,6l-.81,1q-1.09,1.39-2.22,2.76L854,526.61l-.57.69c-.8.94-1.6,1.87-2.41,2.8q-2.82,3.32-5.72,6.53c-.75.85-1.52,1.69-2.29,2.51s-1.47,1.6-2.22,2.4q-3,3.2-5.93,6.24-2.76,2.82-5.53,5.59c-.92.91-1.84,1.82-2.76,2.71s-1.85,1.78-2.79,2.66l-2.28,2.12c-.68.65-1.36,1.28-2,1.91a449.24,449.24,0,0,1-61.76,47.47c-.86.55-1.72,1.1-2.57,1.6q-6.43,4.06-12.47,7.63l-2.41,1.4-2.36,1.37-2.33,1.34-2.23,1.29c-8.34,4.68-15.9,8.59-22.38,11.76l-1.6.8c-10.64,5.15-18.12,8.22-21,9.35l-.42.17-.61.24-.14,0h-.08l-.09,0-.14,0-.21,0-1.07-.42-.54-.23c-.87-.34-2-.8-3.37-1.38l-.46-.18c-1.76-.8-3.89-1.67-6.33-2.77l-1.39-.61a442.25,442.25,0,0,1-39.75-20.6c-.8-.44-1.6-.92-2.35-1.38a474,474,0,0,1-44.78-30l-2.63-2c-1-.75-2-1.51-2.94-2.29l-2.81-2.21c-6.19-4.92-12.43-10.15-18.64-15.69L558.08,566q-2.31-2.05-4.59-4.2l-1.67-1.57L550,558.54l-2-1.94c-1.12-1.07-2.23-2.17-3.33-3.27-.85-.79-1.69-1.66-2.52-2.5l-.24-.26c-.84-.83-1.67-1.67-2.5-2.51-.66-.68-1.32-1.36-2-2l-2-2.06-.13-.15-2.1-2.25q-3.36-3.6-6.66-7.36c-.68-.79-1.36-1.54-2.05-2.34-.57-.65-1.12-1.29-1.66-1.94q-1-1.2-2-2.4-4.28-5.1-8.39-10.48c-.76-1-1.5-1.93-2.24-2.92-1.89-2.47-3.73-5-5.57-7.55-.55-.8-1.12-1.59-1.68-2.39-.13-.16-.24-.34-.36-.5-.59-.86-1.19-1.7-1.77-2.56-.94-1.38-1.89-2.77-2.81-4.17-.74-1.09-1.47-2.2-2.19-3.31a1,1,0,0,0-.15-.24l-2.22-3.48-.22-.36c-.7-1.14-1.41-2.27-2.1-3.4s-1.49-2.46-2.21-3.71-1.43-2.39-2.13-3.67q-4.61-8-8.77-16.46c-.35-.69-.69-1.38-1-2.09-.22-.44-.44-.88-.65-1.35-.43-.87-.8-1.74-1.25-2.63a25.91,25.91,0,0,1-1.15-2.47l-.23-.48c-.27-.58-.53-1.16-.81-1.75l-.26-.57c-.27-.59-.52-1.19-.8-1.78q-1.44-3.25-2.79-6.57c-.42-1-.8-2-1.23-3.08-.1-.25-.21-.52-.31-.79-.4-1-.8-2-1.16-3s-.69-1.82-1-2.74l-.24-.65c-.17-.44-.33-.91-.49-1.35q-1-2.7-1.9-5.44c-.21-.6-.4-1.2-.6-1.8-.26-.8-.51-1.54-.75-2.32-.14-.41-.27-.8-.4-1.22-.25-.8-.49-1.59-.75-2.39-.31-1-.61-2.06-.92-3.11-.19-.64-.39-1.28-.57-1.95-.37-1.29-.74-2.58-1.09-3.89-.19-.68-.37-1.35-.55-2-.13-.5-.27-1-.4-1.51-.32-1.22-.62-2.45-.92-3.7-.18-.7-.34-1.4-.52-2.11-.07-.28-.13-.56-.19-.85-.37-1.55-.72-3.11-1.07-4.69-.26-1.16-.5-2.33-.74-3.5-.13-.71-.29-1.43-.42-2.14s-.32-1.59-.48-2.45a1.86,1.86,0,0,0-.09-.47c-.16-.8-.3-1.64-.45-2.48s-.32-1.84-.48-2.77-.29-1.8-.45-2.71q-.57-3.7-1.07-7.47c-.17-1.23-.33-2.47-.48-3.71A312.68,312.68,0,0,1,447,328.83V122.76Z"
       transform="translate(-445.5 -121.26)"
       id="path37382" />
  </g>
  <g
     id="Layer_11"
     data-name="Layer 11">
    <path
       class="cls-11"
       d="M660.31,194.44c.4-.77,2.07-1.72,2.79-1.24,2.14,1.43,5.58,1.61,9.58-1.18,3.82-2.66,6.89-2.81,8.68-1.19a.72.72,0,0,1-.18,1.17c-1.86.87-5.94,1.55-9.26,3.34s-8.69,1.73-10.56,1C660.16,195.81,659.93,195.16,660.31,194.44Z"
       transform="translate(-445.5 -121.26)"
       id="path37385" />
    <path
       class="cls-11"
       d="M664.19,197.88s7.75-.56,9.56-2.19,6.31-3.19,9.56-3.12,2,2.13,0,2.13-8.81,3.56-11.31,4.44-6.81,1.13-7.81.81C663.36,199.67,662.81,198.56,664.19,197.88Z"
       transform="translate(-445.5 -121.26)"
       id="path37387" />
    <path
       class="cls-11"
       d="M664.31,203.44s-1.52-2.89,2-2.31c4.56.75,10.76-4.08,13.81-4.81,2.88-.69,5.75-2.34,5.75-1v1.47s-7.87,3-8.56,3.24-4.58,2.6-7.37,3.37C666.31,204.44,664.31,203.44,664.31,203.44Z"
       transform="translate(-445.5 -121.26)"
       id="path37389" />
    <path
       class="cls-11"
       d="M665.85,206.35a19.62,19.62,0,0,1,3.23,4.86.45.45,0,0,0,.85-.08,5,5,0,0,0-.43-3.83,4.23,4.23,0,0,0-3-2.16A.74.74,0,0,0,665.85,206.35Z"
       transform="translate(-445.5 -121.26)"
       id="path37391" />
    <path
       class="cls-11"
       d="M669.66,205.33s6.92-1.89,10.25-3.73a10.91,10.91,0,0,1,6-1.53v-2.19s-5.05,1.13-7.05,2.3S667.58,204.95,669.66,205.33Z"
       transform="translate(-445.5 -121.26)"
       id="path37393" />
    <path
       class="cls-11"
       d="M672.31,207.78a2.42,2.42,0,0,1,1.18-1.86c2.28-1.4,7.65-4.56,10.1-4.75,3.17-.25,1.41,1.17.91,1.67s-9.83,5.3-11.24,5.47C672.41,208.4,672.28,208.21,672.31,207.78Z"
       transform="translate(-445.5 -121.26)"
       id="path37395" />
    <path
       class="cls-11"
       d="M671.75,211.08l5.87-3.42a59.42,59.42,0,0,1,6.22-2.93c1-.32,2-1.22,2.83-.85s-2.67,2.28-4.25,3-6.39,3.5-7.49,3.75S673.08,211.67,671.75,211.08Z"
       transform="translate(-445.5 -121.26)"
       id="path37397" />
    <path
       class="cls-11"
       d="M674.33,212s6.37-2.83,7.27-3.25,4.48-3.24,6.32-3.62-3,3.71-5.58,4.62-4.58,3.33-6.25,3.42S674.33,212,674.33,212Z"
       transform="translate(-445.5 -121.26)"
       id="path37399" />
    <path
       class="cls-11"
       d="M674.93,214.67s4.47-2.17,6.39-3.38,3.34-2.43,6-3,2.73.7,1,1.53-6.41,3.17-7.91,4.17a9.34,9.34,0,0,1-3.58,1.42C675.33,215.69,674.93,214.67,674.93,214.67Z"
       transform="translate(-445.5 -121.26)"
       id="path37401" />
    <path
       class="cls-11"
       d="M679.27,215.46s4.68-2.3,6-2.88,2.61-1.54,3.86-.77-4.08,2.95-6.17,3.65S680,215.88,679.27,215.46Z"
       transform="translate(-445.5 -121.26)"
       id="path37403" />
    <path
       class="cls-11"
       d="M662.42,202.08s1.33,6.5,3.25,8,3.17,5.36,6.08,5.81,3.33-1.31,2-1.81a27.27,27.27,0,0,1-3.64-1.33,11.08,11.08,0,0,1-3.44-3.73,53.69,53.69,0,0,1-2.68-4.77C663.75,203.42,663.58,200.67,662.42,202.08Z"
       transform="translate(-445.5 -121.26)"
       id="path37405" />
  </g>
  <g
     id="Layer_12"
     data-name="Layer 12">
    <path
       class="cls-11"
       d="M648.38,178.38s1,3.25,6.25,3.25c3.46,0,12.54,2.79,15.49,2.62,2.36-.13.91-2.87-1.67-2.62s-16.08-3.14-17.45-3.86C648.38,176.39,648.38,178.38,648.38,178.38Z"
       transform="translate(-445.5 -121.26)"
       id="path37408" />
    <path
       class="cls-11"
       d="M645.88,177.28s1.13,6.22,4.63,7a50.76,50.76,0,0,0,9.64.87c1.86-.12,0-2.12-2.39-2.12s-9.37-.21-10.25-4.37C647.07,176.6,645.88,177.28,645.88,177.28Z"
       transform="translate(-445.5 -121.26)"
       id="path37410" />
    <path
       class="cls-11"
       d="M643,178.75a12.15,12.15,0,0,0,8.9,8.25s2.43-1.22-.48-1.86-6-3.89-6.5-5.52A1.29,1.29,0,0,0,643,178.75Z"
       transform="translate(-445.5 -121.26)"
       id="path37412" />
    <path
       class="cls-11"
       d="M638.47,177.93a.64.64,0,0,0,.46.71,3.14,3.14,0,0,1,1.82,1.61c1,1.75,3.23,6.13,7.18,7.63,0,0,.07-.62-1.18-2s-4.93-5.05-5.09-6.59-.79-3.17-2.16-2.6A1.53,1.53,0,0,0,638.47,177.93Z"
       transform="translate(-445.5 -121.26)"
       id="path37414" />
    <path
       class="cls-11"
       d="M642.13,177.76s-1.75-1.64.88-2,10.88-2.7,12.38-4.85,5.75-5.27,6.5-3.27-1.87,1.62-4.62,4.75S646.62,175.53,642.13,177.76Z"
       transform="translate(-445.5 -121.26)"
       id="path37416" />
    <path
       class="cls-11"
       d="M636,187.91a1.14,1.14,0,0,1,.06-1.54c.87-.88,2.45-2.51,3.38-3.59,1.33-1.54,3.92,2.55,3.58,3.8S638.07,190.36,636,187.91Z"
       transform="translate(-445.5 -121.26)"
       id="path37418" />
    <path
       class="cls-11"
       d="M632.08,179.17s-1.34-8.17,3.62-9.67,2,1.17,2,1.17-3,1.21-3.75,3.44S634.42,179.08,632.08,179.17Z"
       transform="translate(-445.5 -121.26)"
       id="path37420" />
    <path
       class="cls-11"
       d="M635.42,178.26a1.26,1.26,0,0,1-.78-1.3c.15-1.57.76-4.9,3.11-5,3.09-.08,7.92.17,8.13,1.87s-4-1.21-6.51-.37-1.37,5.49-2.95,5.08A8.46,8.46,0,0,1,635.42,178.26Z"
       transform="translate(-445.5 -121.26)"
       id="path37422" />
    <path
       class="cls-11"
       d="M639.37,170.92a7.43,7.43,0,0,1,6.05.5c2.75,1.75,3.92,2.09,4.17,1.63s-3.72-3.21-5.11-3.3S638.6,168.58,639.37,170.92Z"
       transform="translate(-445.5 -121.26)"
       id="path37424" />
    <path
       class="cls-11"
       d="M643.67,168.08s5,1.38,6.5,3.25,3.06-1.33,1.61-2.29-6.86-3.88-8.11-2.79S642.21,167.62,643.67,168.08Z"
       transform="translate(-445.5 -121.26)"
       id="path37426" />
    <path
       class="cls-11"
       d="M652.13,166.33a1,1,0,0,0-.27,1.64c.52.56,1.23,1.11,1.81.88,1.08-.44,6.09-4.1,8.34-3.27s2.91,2.77,4.08,3.84.92-2.65-.5-3.41-1.83-3.18-4.33-2.51C659.1,164.07,654.65,165,652.13,166.33Z"
       transform="translate(-445.5 -121.26)"
       id="path37428" />
  </g>
  <g
     id="Layer_13"
     data-name="Layer 13">
    <path
       class="cls-11"
       d="M698.11,171.58a.33.33,0,0,1,0,.65c-6.64.12-18,2.1-22.21-.25-10.17-5.61-7.64-23.82,1.74-27.32,0,0-4.25,3.88-4.74,8.71C672.43,157.75,672.34,169.65,698.11,171.58Z"
       transform="translate(-445.5 -121.26)"
       id="path37431" />
    <path
       class="cls-11"
       d="M675.18,159.22a9,9,0,0,1-.6-5c.29-1.94.93-4.52,2.3-5.89,2.38-2.37,4.75-4.67,8.56-3.71,0,0-5.57,2.33-6.57,4.46s-2.5,6.13-2,7.63,2.24,3,.74,3.5C676.5,160.63,675.93,160.94,675.18,159.22Z"
       transform="translate(-445.5 -121.26)"
       id="path37433" />
    <path
       class="cls-11"
       d="M700.94,168.44c.45.12,2.41,1.45,1.94,1.47-3.39.12-11.89.37-13.52,0-2.35-.53-9.48-3.54-10.48-4.91C678,163.78,693.61,166.44,700.94,168.44Z"
       transform="translate(-445.5 -121.26)"
       id="path37435" />
    <path
       class="cls-11"
       d="M677.38,163.35a.64.64,0,0,0,1,.41,1.59,1.59,0,0,1,1.46-.34c1.88.33,9.75,2.07,11.63,2.58,0,0-6.19-3.46-9.17-4.33C679.89,161,677,160.73,677.38,163.35Z"
       transform="translate(-445.5 -121.26)"
       id="path37437" />
    <path
       class="cls-11"
       d="M694.13,166.74s-10.37-6.11-11.12-8.37,1.45-2.31,3.5-.69,10.29,9.36,11.33,9.4S698,169.39,694.13,166.74Z"
       transform="translate(-445.5 -121.26)"
       id="path37439" />
    <path
       class="cls-11"
       d="M679.64,158.87c-1.45-2.37-.38-6,1.36-8.15a6,6,0,0,1,3.36-2.1c5.14-1.25,6.94.88,6.94.88s-6.08-.25-6.94,1-3.17,6.12-2.77,8.37C681.79,159.94,680.23,159.83,679.64,158.87Z"
       transform="translate(-445.5 -121.26)"
       id="path37441" />
    <path
       class="cls-11"
       d="M698.11,171.58a.33.33,0,0,1,0,.65c-6.64.12-18,2.1-22.21-.25-10.17-5.61-7.64-23.82,1.74-27.32,0,0-4.25,3.88-4.74,8.71C672.43,157.75,672.34,169.65,698.11,171.58Z"
       transform="translate(-445.5 -121.26)"
       id="path37443" />
    <path
       class="cls-11"
       d="M675.18,159.22a9,9,0,0,1-.6-5c.29-1.94.93-4.52,2.3-5.89,2.38-2.37,4.75-4.67,8.56-3.71,0,0-5.57,2.33-6.57,4.46s-2.5,6.13-2,7.63,2.24,3,.74,3.5C676.5,160.63,675.93,160.94,675.18,159.22Z"
       transform="translate(-445.5 -121.26)"
       id="path37445" />
    <path
       class="cls-11"
       d="M700.94,168.44c.45.12,2.41,1.45,1.94,1.47-3.39.12-11.89.37-13.52,0-2.35-.53-9.48-3.54-10.48-4.91C678,163.78,693.61,166.44,700.94,168.44Z"
       transform="translate(-445.5 -121.26)"
       id="path37447" />
    <path
       class="cls-11"
       d="M677.38,163.35a.64.64,0,0,0,1,.41,1.59,1.59,0,0,1,1.46-.34c1.88.33,9.75,2.07,11.63,2.58,0,0-6.19-3.46-9.17-4.33C679.89,161,677,160.73,677.38,163.35Z"
       transform="translate(-445.5 -121.26)"
       id="path37449" />
    <path
       class="cls-11"
       d="M694.13,166.74s-10.37-6.11-11.12-8.37,1.45-2.31,3.5-.69,10.29,9.36,11.33,9.4S698,169.39,694.13,166.74Z"
       transform="translate(-445.5 -121.26)"
       id="path37451" />
    <path
       class="cls-11"
       d="M679.64,158.87c-1.45-2.37-.38-6,1.36-8.15a6,6,0,0,1,3.36-2.1c5.14-1.25,6.94.88,6.94.88s-6.08-.25-6.94,1-3.17,6.12-2.77,8.37C681.79,159.94,680.23,159.83,679.64,158.87Z"
       transform="translate(-445.5 -121.26)"
       id="path37453" />
  </g>
  <path
     id="shine"
     d="M 2.9699974,-0.459979 V 205.9169 C 2.9699974,435.58144 242.89,525.52 242.89,525.52 c 0,0 239.92,-89.93856 239.92,-319.6031 V -0.459979 Z"
     style="fill:url(#rg);stroke:#000000;stroke-width:2.41218" />
</svg>
